<svg width="25" height="21" viewBox="0 0 25 21" fill="none" xmlns="http://www.w3.org/2000/svg">
<path d="M2 11.9276H19.79L14.345 18.1556C14.2189 18.3 14.124 18.4667 14.0655 18.6461C14.0071 18.8255 13.9864 19.014 14.0045 19.2011C14.041 19.5788 14.2337 19.9272 14.54 20.1697C14.8463 20.4121 15.2412 20.5288 15.6379 20.494C16.0345 20.4591 16.4004 20.2757 16.655 19.984L24.155 11.4133C24.2055 11.3451 24.2506 11.2735 24.29 11.199C24.29 11.1276 24.365 11.0848 24.395 11.0133C24.463 10.8496 24.4986 10.6752 24.5 10.4991C24.4986 10.323 24.463 10.1487 24.395 9.98487C24.395 9.91345 24.32 9.87059 24.29 9.79917C24.2506 9.72469 24.2055 9.65307 24.155 9.5849L16.655 1.01424C16.514 0.852996 16.3374 0.723322 16.1377 0.634442C15.9381 0.545563 15.7204 0.499662 15.5 0.500003C15.1495 0.499351 14.8099 0.615591 14.54 0.828545C14.3881 0.948461 14.2626 1.09573 14.1705 1.26193C14.0785 1.42813 14.0218 1.60998 14.0037 1.79707C13.9856 1.98416 14.0064 2.17282 14.065 2.35224C14.1235 2.53166 14.2187 2.69831 14.345 2.84265L19.79 9.07066H2C1.60218 9.07066 1.22064 9.22116 0.93934 9.48905C0.658036 9.75693 0.5 10.1203 0.5 10.4991C0.5 10.878 0.658036 11.2413 0.93934 11.5092C1.22064 11.7771 1.60218 11.9276 2 11.9276Z" fill="white"/>
</svg>
