<svg width="276" height="80" viewBox="0 0 276 80" fill="none" xmlns="http://www.w3.org/2000/svg">
<path d="M29.6998 40.0224C29.6178 41.1628 29.5896 42.3099 29.439 43.4422C29.2616 44.7784 28.8785 46.065 27.9657 47.1168C27.8017 47.306 27.5638 47.4643 27.3286 47.5528C26.1268 48.0009 24.9721 47.8439 23.8914 47.1785C22.7313 46.4648 21.5806 45.7363 20.438 44.9931C19.1274 44.1411 17.7361 43.4797 16.1728 43.2879C13.9333 43.0129 11.843 43.4234 9.97987 44.769C9.30104 45.2587 9.26071 45.9697 9.31717 46.6781C9.37228 47.3757 9.85755 47.7916 10.5014 48.0049C11.4505 48.3202 12.4102 48.6033 13.3552 48.928C13.6254 49.0205 13.9185 49.156 14.1053 49.3586C15.0584 50.3943 16.3341 50.9605 17.474 51.7225C19.3774 52.9957 21.383 54.1347 23.0875 55.6789C25.5542 57.9126 27.713 60.416 29.5358 63.2039C30.4122 64.5428 31.3492 65.8441 32.1759 67.2125C32.9125 68.4321 33.387 69.7777 33.7459 71.1582C34.0632 72.3777 34.4194 73.5878 34.6923 74.8167C34.9746 76.0858 35.1789 77.3738 35.4182 78.6523C35.4464 78.8012 35.4827 78.9488 35.5324 79.1769C34.4221 78.8066 33.3736 78.4632 32.3304 78.109C28.701 76.8747 25.1401 75.4754 21.7258 73.7246C17.9162 71.7713 14.4212 69.3819 11.4343 66.2936C8.95825 63.7338 6.92847 60.8507 5.29119 57.698C4.45239 56.084 3.63106 54.4526 2.94282 52.7716C2.07041 50.6412 2.23925 51.3374 1.49576 48.928C1.20272 48.1056 0.787242 46.8838 0.551069 45.4667C0.393621 44.522 0.136918 43.3054 0.0787235 42.1997C0 40.7039 0.0787248 41.0975 0 39.9167C0 39.1688 0.031676 38.3658 0.0787241 37.9486C0.209115 36.7881 0.185794 36.4712 0.383396 35.3215C0.653587 33.7465 0.92781 32.1661 1.33511 30.6232C1.9911 28.1426 2.842 25.7211 3.90394 23.3786C5.87593 19.0319 8.47567 15.0983 11.6991 11.578C14.7425 8.25483 15.5641 7.19064 19.4449 4.88443C20.7601 4.18595 24.6013 2.3259 25.9002 1.85355C27.5928 1.38121 28.9004 1.08056 30.6237 0.790778C32.0459 0.551974 33.59 0.422602 35.0256 0.275027C36.0311 0.171724 37.0447 0.1516 38.0542 0.10062C38.7666 0.0643965 39.4791 0.0348815 40.1915 0.00268319C40.2197 0.00268319 40.248 0.00134159 40.2762 0C40.912 0 41.5478 0 42.1837 0C42.2119 0 42.2401 0.00134159 42.2683 0.00268319C43.1125 0.0335399 43.958 0.0415894 44.8009 0.103303C45.8964 0.183798 46.9893 0.301859 48.0821 0.417236C49.0016 0.513831 49.9238 0.598351 50.8365 0.74056C51.8621 0.90021 52.8837 1.08937 53.896 1.32013C54.9687 1.56564 56.0346 1.84738 57.0872 2.16533C61.4747 3.48949 65.5128 5.47907 69.0051 8.49095C72.1842 11.2305 74.5729 14.5456 76.1202 18.4335C76.7399 19.9911 77.2345 21.6091 77.6459 23.2337C77.99 24.5955 78.1634 26.0041 78.3516 27.3994C78.5075 28.5518 78.5868 29.715 78.6756 30.8755C78.7481 31.8186 78.7858 32.7631 78.8382 33.7076C78.8718 34.2979 78.9041 34.8895 78.9377 35.4798C78.9377 36.3317 78.939 37.1823 78.9404 38.0342C78.9094 38.8901 78.8973 39.7474 78.8422 40.6007C78.7831 41.5143 78.6836 42.4252 78.5989 43.3362C78.5223 44.1613 78.4874 44.9917 78.357 45.8074C78.0975 47.4415 77.8367 49.0796 77.4872 50.6962C76.6619 54.5157 75.3956 58.1863 73.5944 61.6651C70.1182 68.3744 65.0544 73.5247 58.3709 77.0692C56.8923 77.8541 55.3518 78.5235 53.7723 79.2788C53.6164 78.4336 53.4739 77.6971 53.3475 76.9579C53.2117 76.1637 53.08 75.3694 52.9644 74.5712C52.8649 73.8883 52.7722 73.2041 52.7103 72.5186C52.6136 71.4359 52.5208 70.3532 52.4711 69.2679C52.3985 67.6861 52.8488 66.1996 53.3704 64.7279C53.9323 63.1475 54.5318 61.5778 54.9982 59.9693C55.259 59.0717 55.3289 58.1085 55.4015 57.1694C55.4996 55.9109 55.5158 54.6445 55.5736 53.3834C55.622 52.294 55.6408 51.202 55.7416 50.1179C55.8733 48.6972 56.29 47.3395 56.9595 46.0824C57.5738 44.93 58.2513 43.8084 58.953 42.707C60.195 40.7563 61.4667 38.8231 62.7464 36.8965C63.5435 35.6958 64.4106 34.5407 65.1889 33.3279C65.9322 32.1674 66.2925 30.8755 66.1675 29.4882C66.0976 28.7048 65.8879 27.9494 65.5034 27.2505C65.3892 27.0425 65.2278 26.9889 64.9899 26.966C63.526 26.8238 62.5945 27.6597 61.8229 28.7128C61.1669 29.6076 60.6265 30.587 59.9826 31.4912C59.4866 32.1875 58.9704 32.8919 58.3494 33.4728C57.1974 34.5514 56.2753 35.8045 55.3424 37.0589C54.9566 37.5781 54.5304 38.0731 54.0842 38.54C53.5989 39.0485 52.9846 39.3463 52.2708 39.3771C51.561 39.408 51.4495 39.3034 51.5946 38.6205C51.8393 37.4707 52.0826 36.3156 52.4213 35.1914C52.7735 34.0228 53.2413 32.8892 53.6567 31.7394C54.271 30.037 54.7428 28.2996 55.1017 26.5206C55.3437 25.3293 55.8209 24.1863 56.1785 23.0164C56.618 21.5795 57.1369 20.1575 57.4353 18.6924C57.6222 17.7748 57.555 16.778 57.4394 15.8375C57.3574 15.164 56.7444 14.732 56.2148 14.3323C55.3558 13.6843 54.5372 13.7768 53.8234 14.5818C53.119 15.3774 52.6888 16.3326 52.3071 17.3039C51.4078 19.5967 50.5206 21.8948 49.671 24.205C49.0029 26.0216 48.4169 27.8676 47.7555 29.6881C47.2299 31.1357 46.5027 32.484 45.555 33.7062C45.4582 33.831 45.3507 33.9491 45.2431 34.0658C45.2203 34.0913 45.1759 34.098 45.1208 34.1221C45.0953 34.0403 45.0536 33.9692 45.0536 33.8981C45.0522 32.7403 45.0281 31.5852 45.2485 30.4341C45.5066 29.0844 45.7055 27.7227 45.93 26.3664C46.129 25.1629 46.3454 23.9609 46.5215 22.7548C46.6667 21.7593 46.7473 20.7545 46.8898 19.7577C47.039 18.7166 47.2407 17.6822 47.3926 16.6411C47.5686 15.4337 47.9733 14.2826 48.2448 13.102C48.6481 11.3432 47.8738 9.63265 46.3871 8.67877C45.3587 8.01871 43.8989 8.30045 43.2174 9.60716C42.849 10.3128 42.7684 11.0843 42.5923 11.8369C42.267 13.2335 41.9094 14.622 41.5774 16.0173C41.24 17.4354 40.9241 18.8588 40.5867 20.2769C40.3205 21.3971 40.0195 22.5093 39.7627 23.6308C39.6135 24.2855 39.4966 24.9496 39.4119 25.6151C39.2317 27.0291 39.1242 28.4539 38.9011 29.8612C38.7774 30.6407 38.5233 31.4081 38.2491 32.1527C37.9547 32.9536 37.1993 33.1374 36.5366 32.5686C36.2301 32.3056 35.9639 31.9299 35.8255 31.5516C35.4074 30.4059 35.2232 29.2052 35.0794 27.9924C34.8536 26.0833 34.5538 24.1822 34.3024 22.2758C34.2218 21.6681 34.1868 21.055 34.1452 20.4432C34.0578 19.1593 34.0712 17.8606 33.8736 16.5955C33.668 15.2794 33.2929 13.9848 32.9219 12.7022C32.8023 12.289 32.4555 11.9442 32.2243 11.5605C31.9003 11.0239 31.4083 11.0118 30.872 11.099C29.767 11.2815 29.1016 11.9965 28.7642 12.984C28.5048 13.7446 28.3072 14.5563 28.2628 15.3546C28.1674 17.1228 28.1889 18.8964 28.1566 20.6673C28.1499 21.0188 28.1163 21.3703 28.0961 21.7218C28.0961 21.9096 28.0988 22.0987 28.1001 22.2866C28.1001 22.6542 28.1015 23.0231 28.1028 23.3907C28.1001 23.6054 28.0988 23.82 28.0961 24.0347C28.1647 24.798 28.2319 25.5614 28.3031 26.3248C28.3596 26.9218 28.4134 27.5188 28.4859 28.1145C28.5733 28.8349 28.6768 29.5526 28.7736 30.2717C28.8879 31.121 29.0021 31.9702 29.1177 32.8194C29.2159 33.5385 29.3221 34.2549 29.4135 34.974C29.482 35.504 29.5452 36.0352 29.5896 36.5665C29.6366 37.1286 29.6595 37.6934 29.6931 38.2569C29.6931 38.8432 29.6917 39.4295 29.6904 40.0171L29.6998 40.0224Z" fill="black"/>
<path d="M78.9407 38.0349C78.9407 37.183 78.9393 36.3324 78.938 35.4805C78.9595 36.0105 78.9944 36.5404 78.9998 37.0703C79.0025 37.391 78.9622 37.7129 78.9407 38.0349Z" fill="black"/>
<path d="M29.7014 40.0225C29.7014 39.4362 29.7028 38.8499 29.7041 38.2623C29.7041 38.8486 29.7028 39.4349 29.7014 40.0225Z" fill="black"/>
<path d="M28.11 22.2901C28.11 22.1022 28.1073 21.9131 28.106 21.7253C28.106 21.9131 28.1086 22.1022 28.11 22.2901Z" fill="black"/>
<path d="M40.2788 0.00189209C40.2506 0.00189209 40.2223 0.00323368 40.1941 0.00457528C40.2223 0.00457528 40.2506 0.00323368 40.2788 0.00189209Z" fill="black"/>
<path d="M42.2758 0.00457528C42.2476 0.00457528 42.2194 0.00323368 42.1912 0.00189209C42.2194 0.00189209 42.2476 0.00323368 42.2758 0.00457528Z" fill="black"/>
<path d="M135.359 27.1785V53.2175C135.359 54.03 135.75 54.5769 136.531 54.8582C137.328 55.1238 137.727 55.5535 137.727 56.1472C137.727 56.7878 137.367 57.1082 136.648 57.1082H128.703C127.984 57.1082 127.625 56.7878 127.625 56.1472C127.625 55.5535 128.016 55.1238 128.797 54.8582C129.578 54.5769 129.969 54.03 129.969 53.2175V30.7175L117.43 57.8113H115.719L103.32 31.7722V53.2175C103.32 54.03 103.711 54.5769 104.492 54.8582C105.273 55.1238 105.664 55.5535 105.664 56.1472C105.664 56.7878 105.305 57.1082 104.586 57.1082H98.6328C97.9141 57.1082 97.5547 56.7878 97.5547 56.1472C97.5547 55.5535 97.9453 55.1238 98.7266 54.8582C99.5078 54.5769 99.8984 54.03 99.8984 53.2175V27.1785C99.8984 26.3816 99.5078 25.8425 98.7266 25.5613C97.9453 25.28 97.5547 24.8347 97.5547 24.2253C97.5547 23.5847 97.9141 23.2644 98.6328 23.2644H105.266L117.688 48.7175L129.711 23.2644H136.648C137.367 23.2644 137.727 23.5847 137.727 24.2253C137.727 24.8347 137.328 25.28 136.531 25.5613C135.75 25.8425 135.359 26.3816 135.359 27.1785ZM143.07 38.03C142.852 37.53 142.531 37.1394 142.109 36.8582C141.75 36.6238 141.328 36.4128 140.844 36.2253C140.359 36.0222 140.055 35.7488 139.93 35.405C139.867 35.2644 139.836 35.1394 139.836 35.03C139.836 34.5769 140.133 34.3503 140.727 34.3503H148.414C148.992 34.3503 149.383 34.5925 149.586 35.0769C149.648 35.1863 149.68 35.3035 149.68 35.4285C149.68 35.7878 149.453 36.0769 149 36.2957C148.781 36.405 148.625 36.5925 148.531 36.8582C148.5 36.9519 148.484 37.0613 148.484 37.1863C148.484 37.3269 148.523 37.4753 148.602 37.6316L154.18 51.2722L159.008 39.6941C159.133 39.4128 159.195 39.1394 159.195 38.8738C159.195 38.4207 159.008 37.9753 158.633 37.5378L157.602 36.2957L160.039 34.3972C160.227 34.1941 160.453 34.0925 160.719 34.0925C161.016 34.0925 161.289 34.2175 161.539 34.4675L162.852 35.8035C163.195 36.1628 163.367 36.6003 163.367 37.116C163.367 37.3816 163.312 37.6863 163.203 38.03C162.953 38.78 162.578 39.6628 162.078 40.6785L150.5 66.5066C150.016 67.5378 149.586 68.405 149.211 69.1082C148.727 69.9519 148.07 70.3738 147.242 70.3738H147.148L145.227 70.3035C144.586 70.1941 144.266 69.8894 144.266 69.3894L144.102 66.2722L145.883 66.2253C146.68 66.1941 147.25 65.8347 147.594 65.1472L151.25 57.5535C151.297 57.5535 151.32 57.5378 151.32 57.5066C151.32 57.4441 151.266 57.3503 151.156 57.2253C151.062 57.1316 150.977 56.9675 150.898 56.7332C150.82 56.5144 150.766 56.366 150.734 56.2878L143.07 38.03ZM176.492 54.8816C177.664 54.8035 178.789 54.4988 179.867 53.9675C180.945 53.4207 181.812 52.6238 182.469 51.5769C183.156 50.4675 183.5 49.1238 183.5 47.5457V47.2878C183.453 45.6628 182.844 44.4285 181.672 43.5847C181.141 43.1785 180.492 42.866 179.727 42.6472C178.102 42.2097 176.414 41.8972 174.664 41.7097C172.93 41.5066 171.25 41.0144 169.625 40.2332C168.125 39.53 167.008 38.5066 166.273 37.1628C165.555 35.8035 165.195 34.3425 165.195 32.78C165.195 29.7332 166.266 27.2332 168.406 25.28C170.625 23.2332 173.414 22.2097 176.773 22.2097H177.5C181.109 22.366 184.266 23.3191 186.969 25.0691L186.383 30.2488C186.32 30.8113 185.977 31.0925 185.352 31.0925H185.234C184.766 31.0613 184.391 30.741 184.109 30.1316C183.484 28.7878 182.57 27.655 181.367 26.7332C180.18 25.8113 178.914 25.3191 177.57 25.2566H177.219C175.875 25.2566 174.695 25.491 173.68 25.9597C173.008 26.3035 172.477 26.6785 172.086 27.0847C171.711 27.491 171.375 27.991 171.078 28.5847C170.844 29.0691 170.664 29.6394 170.539 30.2957C170.43 30.78 170.375 31.2332 170.375 31.655C170.375 32.2175 170.461 32.741 170.633 33.2253C170.93 34.1785 171.438 34.905 172.156 35.405C172.688 35.8113 173.273 36.0925 173.914 36.2488C174.305 36.3582 174.773 36.4597 175.32 36.5535C175.867 36.6472 176.445 36.741 177.055 36.8347C177.945 36.9753 178.891 37.1238 179.891 37.28C180.906 37.4363 181.898 37.655 182.867 37.9363C184.539 38.4832 185.789 39.2019 186.617 40.0925C187.211 40.78 187.703 41.53 188.094 42.3425C188.531 43.4207 188.75 44.6003 188.75 45.8816C188.75 49.3503 187.336 52.241 184.508 54.5535C183.039 55.7566 181.414 56.6472 179.633 57.2253C178.195 57.6785 176.664 57.9363 175.039 57.9988C174.695 58.0144 174.352 58.0222 174.008 58.0222C171.773 58.0222 169.531 57.6785 167.281 56.991L164.984 50.5925C164.938 50.4675 164.914 50.3425 164.914 50.2175C164.914 49.9832 164.992 49.7566 165.148 49.5378C165.383 49.1628 165.75 48.9753 166.25 48.9753C166.672 49.0847 167.016 49.4128 167.281 49.9597C168.234 52.0378 169.414 53.4128 170.82 54.0847C171.977 54.6472 173.461 54.9285 175.273 54.9285C175.664 54.9285 176.07 54.9128 176.492 54.8816ZM194.047 37.3269C193.859 37.3269 193.172 37.3582 191.984 37.4207H191.844C191.172 37.4207 190.82 37.1082 190.789 36.4832V36.4363C190.789 36.0144 191.039 35.6863 191.539 35.4519C191.836 35.3113 192.469 34.9753 193.438 34.4441C193.688 34.3191 193.945 34.2019 194.211 34.0925C194.258 34.0769 194.281 34.0613 194.281 34.0457C194.281 34.03 194.203 34.0222 194.047 34.0222V30.4832C194.047 29.5925 194.242 28.9675 194.633 28.6082C195.023 28.2332 195.82 27.7566 197.023 27.1785C197.539 26.9285 197.977 26.8035 198.336 26.8035C199.086 26.8035 199.461 27.1628 199.461 27.8816V33.9285L204.453 33.8347H204.477C205.102 33.8347 205.414 34.1941 205.414 34.9128C205.414 35.1472 205.383 35.4363 205.32 35.78C205.102 36.78 204.555 37.28 203.68 37.28L199.461 37.2566V51.4832C199.461 52.7644 199.898 53.7175 200.773 54.3425C201.664 54.9675 202.57 55.3425 203.492 55.4675V57.0847C200.711 57.0847 198.438 56.8425 196.672 56.3582C194.922 55.8738 194.047 54.0144 194.047 50.78V37.3269ZM219.312 33.7644C222.547 33.8894 225.266 35.116 227.469 37.4441C229.672 39.7722 230.797 42.5378 230.844 45.741V45.8816C230.844 49.116 229.695 51.8582 227.398 54.1082C225.039 56.405 222.148 57.6003 218.727 57.6941H218.352C215.164 57.6941 212.422 56.5222 210.125 54.1785C207.797 51.8191 206.633 49.03 206.633 45.8113V45.741C206.648 42.2097 207.984 39.2332 210.641 36.8113C211 36.4832 211.492 36.2097 212.117 35.991C212.742 35.7722 213.633 35.4519 214.789 35.03C215.477 34.78 216.234 34.5066 217.062 34.2097C217.922 33.9128 218.641 33.7644 219.219 33.7644H219.312ZM218.773 36.2722H218.516C216.906 36.2722 215.5 37.0769 214.297 38.6863C212.969 40.4832 212.305 42.7097 212.305 45.366C212.305 48.0222 212.945 50.3035 214.227 52.2097C215.523 54.1003 217.039 55.0847 218.773 55.1628H219.078C220.672 55.1628 222.062 54.3582 223.25 52.7488C224.578 50.9675 225.242 48.7488 225.242 46.0925C225.242 43.4363 224.594 41.1628 223.297 39.2722C222 37.366 220.492 36.366 218.773 36.2722ZM241.766 42.6941V53.2175C241.766 54.03 242.148 54.5769 242.914 54.8582C243.695 55.1238 244.086 55.5535 244.086 56.1472C244.086 56.7878 243.734 57.1082 243.031 57.1082H235.086C234.367 57.1082 234.008 56.7878 234.008 56.1472C234.008 55.5535 234.398 55.1238 235.18 54.8582C235.961 54.5769 236.352 54.03 236.352 53.2175V38.2175C236.352 37.4363 235.961 36.905 235.18 36.6238C234.398 36.3425 234.008 35.8972 234.008 35.2878C234.008 34.6472 234.359 34.3269 235.062 34.3269C236.031 34.28 237 34.1238 237.969 33.8582C238.953 33.5925 240.219 33.2019 241.766 32.6863V35.7332L244.203 34.8191C245.406 34.366 246.352 34.0222 247.039 33.7878C247.32 33.7097 247.633 33.6707 247.977 33.6707C248.633 33.6707 249.57 33.8816 250.789 34.3035L250.203 40.9597H248.117C247.508 38.6785 246.492 37.5378 245.07 37.5378C244.914 37.5378 244.766 37.5457 244.625 37.5613C243.672 37.6707 242.969 38.2097 242.516 39.1785C242.062 40.1316 241.812 41.3035 241.766 42.6941ZM254.586 38.03C254.367 37.53 254.047 37.1394 253.625 36.8582C253.266 36.6238 252.844 36.4128 252.359 36.2253C251.875 36.0222 251.57 35.7488 251.445 35.405C251.383 35.2644 251.352 35.1394 251.352 35.03C251.352 34.5769 251.648 34.3503 252.242 34.3503H259.93C260.508 34.3503 260.898 34.5925 261.102 35.0769C261.164 35.1863 261.195 35.3035 261.195 35.4285C261.195 35.7878 260.969 36.0769 260.516 36.2957C260.297 36.405 260.141 36.5925 260.047 36.8582C260.016 36.9519 260 37.0613 260 37.1863C260 37.3269 260.039 37.4753 260.117 37.6316L265.695 51.2722L270.523 39.6941C270.648 39.4128 270.711 39.1394 270.711 38.8738C270.711 38.4207 270.523 37.9753 270.148 37.5378L269.117 36.2957L271.555 34.3972C271.742 34.1941 271.969 34.0925 272.234 34.0925C272.531 34.0925 272.805 34.2175 273.055 34.4675L274.367 35.8035C274.711 36.1628 274.883 36.6003 274.883 37.116C274.883 37.3816 274.828 37.6863 274.719 38.03C274.469 38.78 274.094 39.6628 273.594 40.6785L262.016 66.5066C261.531 67.5378 261.102 68.405 260.727 69.1082C260.242 69.9519 259.586 70.3738 258.758 70.3738H258.664L256.742 70.3035C256.102 70.1941 255.781 69.8894 255.781 69.3894L255.617 66.2722L257.398 66.2253C258.195 66.1941 258.766 65.8347 259.109 65.1472L262.766 57.5535C262.812 57.5535 262.836 57.5378 262.836 57.5066C262.836 57.4441 262.781 57.3503 262.672 57.2253C262.578 57.1316 262.492 56.9675 262.414 56.7332C262.336 56.5144 262.281 56.366 262.25 56.2878L254.586 38.03Z" fill="black"/>
</svg>
