<svg width="276" height="80" viewBox="0 0 276 80" fill="none" xmlns="http://www.w3.org/2000/svg">
<path d="M29.6998 40.3013C29.6178 41.4416 29.5896 42.5887 29.439 43.721C29.2616 45.0572 28.8785 46.3438 27.9657 47.3956C27.8017 47.5848 27.5638 47.7431 27.3286 47.8316C26.1268 48.2797 24.9721 48.1227 23.8914 47.4573C22.7313 46.7436 21.5806 46.0151 20.438 45.2719C19.1274 44.4199 17.7361 43.7585 16.1728 43.5667C13.9333 43.2917 11.843 43.7022 9.97987 45.0478C9.30104 45.5375 9.26071 46.2485 9.31717 46.9569C9.37228 47.6545 9.85755 48.0704 10.5014 48.2837C11.4505 48.599 12.4102 48.8821 13.3552 49.2068C13.6254 49.2993 13.9185 49.4348 14.1053 49.6374C15.0584 50.6731 16.3341 51.2393 17.474 52.0013C19.3774 53.2745 21.383 54.4135 23.0875 55.9577C25.5542 58.1914 27.713 60.6948 29.5358 63.4827C30.4122 64.8216 31.3492 66.1229 32.1759 67.4914C32.9125 68.7109 33.387 70.0565 33.7459 71.437C34.0632 72.6565 34.4194 73.8666 34.6923 75.0955C34.9746 76.3647 35.1789 77.6526 35.4182 78.9311C35.4464 79.08 35.4827 79.2276 35.5324 79.4557C34.4221 79.0854 33.3736 78.742 32.3304 78.3878C28.701 77.1535 25.1401 75.7542 21.7258 74.0035C17.9162 72.0501 14.4212 69.6607 11.4343 66.5724C8.95825 64.0126 6.92847 61.1295 5.29119 57.9768C4.45239 56.3628 3.63106 54.7314 2.94282 53.0504C2.07041 50.92 2.23925 51.6162 1.49576 49.2068C1.20272 48.3844 0.787242 47.1626 0.551069 45.7455C0.393621 44.8009 0.136918 43.5842 0.0787235 42.4785C0 40.9827 0.0787248 41.3764 0 40.1955C0 39.4476 0.031676 38.6446 0.0787241 38.2274C0.209115 37.0669 0.185794 36.7501 0.383396 35.6003C0.653587 34.0253 0.92781 32.4449 1.33511 30.902C1.9911 28.4214 2.842 25.9999 3.90394 23.6574C5.87593 19.3107 8.47567 15.3771 11.6991 11.8568C14.7425 8.53364 15.5641 7.46944 19.4449 5.16324C20.7601 4.46476 24.6013 2.60471 25.9002 2.13236C27.5928 1.66002 28.9004 1.35937 30.6237 1.06959C32.0459 0.830783 33.59 0.701411 35.0256 0.553835C36.0311 0.450533 37.0447 0.430409 38.0542 0.379428C38.7666 0.343205 39.4791 0.31369 40.1915 0.281492C40.2197 0.281492 40.248 0.28015 40.2762 0.278809C40.912 0.278809 41.5478 0.278809 42.1837 0.278809C42.2119 0.278809 42.2401 0.28015 42.2683 0.281492C43.1125 0.312348 43.958 0.320398 44.8009 0.382111C45.8964 0.462607 46.9893 0.580667 48.0821 0.696044C49.0016 0.792639 49.9238 0.87716 50.8365 1.01937C51.8621 1.17902 52.8837 1.36818 53.896 1.59894C54.9687 1.84445 56.0346 2.12618 57.0872 2.44414C61.4747 3.7683 65.5128 5.75788 69.0051 8.76976C72.1842 11.5093 74.5729 14.8244 76.1202 18.7123C76.7399 20.2699 77.2345 21.8879 77.6459 23.5125C77.99 24.8743 78.1634 26.2829 78.3516 27.6782C78.5075 28.8306 78.5868 29.9938 78.6756 31.1543C78.7481 32.0974 78.7858 33.0419 78.8382 33.9864C78.8718 34.5767 78.9041 35.1683 78.9377 35.7586C78.9377 36.6105 78.939 37.4611 78.9404 38.313C78.9094 39.1689 78.8973 40.0262 78.8422 40.8795C78.7831 41.7931 78.6836 42.7041 78.5989 43.615C78.5223 44.4401 78.4874 45.2705 78.357 46.0862C78.0975 47.7203 77.8367 49.3584 77.4872 50.975C76.6619 54.7945 75.3956 58.4651 73.5944 61.9439C70.1182 68.6532 65.0544 73.8036 58.3709 77.348C56.8923 78.1329 55.3518 78.8023 53.7723 79.5576C53.6164 78.7124 53.4739 77.9759 53.3475 77.2367C53.2117 76.4425 53.08 75.6483 52.9644 74.85C52.8649 74.1671 52.7722 73.4829 52.7103 72.7974C52.6136 71.7147 52.5208 70.632 52.4711 69.5467C52.3985 67.9649 52.8488 66.4784 53.3704 65.0067C53.9323 63.4263 54.5318 61.8567 54.9982 60.2481C55.259 59.3506 55.3289 58.3873 55.4015 57.4482C55.4996 56.1898 55.5158 54.9233 55.5736 53.6622C55.622 52.5728 55.6408 51.4808 55.7416 50.3968C55.8733 48.976 56.29 47.6183 56.9595 46.3612C57.5738 45.2088 58.2513 44.0872 58.953 42.9858C60.195 41.0351 61.4667 39.1019 62.7464 37.1753C63.5435 35.9746 64.4106 34.8195 65.1889 33.6067C65.9322 32.4462 66.2925 31.1543 66.1675 29.7671C66.0976 28.9836 65.8879 28.2282 65.5034 27.5293C65.3892 27.3213 65.2278 27.2677 64.9899 27.2449C63.526 27.1026 62.5945 27.9385 61.8229 28.9916C61.1669 29.8865 60.6265 30.8658 59.9826 31.7701C59.4866 32.4663 58.9704 33.1707 58.3494 33.7516C57.1974 34.8302 56.2753 36.0833 55.3424 37.3377C54.9566 37.8569 54.5304 38.3519 54.0842 38.8188C53.5989 39.3273 52.9846 39.6251 52.2708 39.656C51.561 39.6868 51.4495 39.5822 51.5946 38.8993C51.8393 37.7495 52.0826 36.5944 52.4213 35.4702C52.7735 34.3016 53.2413 33.168 53.6567 32.0183C54.271 30.3158 54.7428 28.5784 55.1017 26.7994C55.3437 25.6081 55.8209 24.4651 56.1785 23.2952C56.618 21.8584 57.1369 20.4363 57.4353 18.9712C57.6222 18.0536 57.555 17.0568 57.4394 16.1163C57.3574 15.4429 56.7444 15.0109 56.2148 14.6111C55.3558 13.9631 54.5372 14.0556 53.8234 14.8606C53.119 15.6562 52.6888 16.6114 52.3071 17.5827C51.4078 19.8755 50.5206 22.1736 49.671 24.4839C49.0029 26.3004 48.4169 28.1464 47.7555 29.967C47.2299 31.4145 46.5027 32.7628 45.555 33.985C45.4582 34.1098 45.3507 34.2279 45.2431 34.3446C45.2203 34.3701 45.1759 34.3768 45.1208 34.4009C45.0953 34.3191 45.0536 34.248 45.0536 34.1769C45.0522 33.0191 45.0281 31.864 45.2485 30.7129C45.5066 29.3632 45.7055 28.0015 45.93 26.6452C46.129 25.4418 46.3454 24.2397 46.5215 23.0336C46.6667 22.0381 46.7473 21.0333 46.8898 20.0365C47.039 18.9954 47.2407 17.961 47.3926 16.9199C47.5686 15.7125 47.9733 14.5614 48.2448 13.3808C48.6481 11.622 47.8738 9.91146 46.3871 8.95758C45.3587 8.29752 43.8989 8.57925 43.2174 9.88597C42.849 10.5916 42.7684 11.3631 42.5923 12.1157C42.267 13.5123 41.9094 14.9008 41.5774 16.2961C41.24 17.7142 40.9241 19.1376 40.5867 20.5557C40.3205 21.6759 40.0195 22.7881 39.7627 23.9097C39.6135 24.5644 39.4966 25.2284 39.4119 25.8939C39.2317 27.3079 39.1242 28.7327 38.9011 30.14C38.7774 30.9195 38.5233 31.6869 38.2491 32.4315C37.9547 33.2324 37.1993 33.4162 36.5366 32.8474C36.2301 32.5844 35.9639 32.2088 35.8255 31.8304C35.4074 30.6847 35.2232 29.484 35.0794 28.2712C34.8536 26.3621 34.5538 24.461 34.3024 22.5546C34.2218 21.9469 34.1868 21.3338 34.1452 20.722C34.0578 19.4381 34.0712 18.1395 33.8736 16.8743C33.668 15.5582 33.2929 14.2636 32.9219 12.981C32.8023 12.5678 32.4555 12.223 32.2243 11.8393C31.9003 11.3027 31.4083 11.2906 30.872 11.3778C29.767 11.5603 29.1016 12.2753 28.7642 13.2628C28.5048 14.0234 28.3072 14.8351 28.2628 15.6334C28.1674 17.4016 28.1889 19.1752 28.1566 20.9461C28.1499 21.2976 28.1163 21.6491 28.0961 22.0006C28.0961 22.1884 28.0988 22.3776 28.1001 22.5654C28.1001 22.933 28.1015 23.3019 28.1028 23.6695C28.1001 23.8842 28.0988 24.0988 28.0961 24.3135C28.1647 25.0768 28.2319 25.8402 28.3031 26.6036C28.3596 27.2006 28.4134 27.7976 28.4859 28.3933C28.5733 29.1137 28.6768 29.8315 28.7736 30.5505C28.8879 31.3998 29.0021 32.249 29.1177 33.0982C29.2159 33.8173 29.3221 34.5337 29.4135 35.2528C29.482 35.7828 29.5452 36.314 29.5896 36.8453C29.6366 37.4074 29.6595 37.9722 29.6931 38.5357C29.6931 39.122 29.6917 39.7083 29.6904 40.2959L29.6998 40.3013Z" fill="white"/>
<path d="M78.9407 38.3137C78.9407 37.4618 78.9393 36.6113 78.938 35.7593C78.9595 36.2893 78.9944 36.8192 78.9998 37.3491C79.0025 37.6698 78.9622 37.9918 78.9407 38.3137Z" fill="white"/>
<path d="M29.7014 40.3013C29.7014 39.715 29.7028 39.1288 29.7041 38.5412C29.7041 39.1274 29.7028 39.7137 29.7014 40.3013Z" fill="white"/>
<path d="M28.11 22.5689C28.11 22.381 28.1073 22.1919 28.106 22.0041C28.106 22.1919 28.1086 22.381 28.11 22.5689Z" fill="white"/>
<path d="M40.2788 0.280712C40.2506 0.280712 40.2223 0.282054 40.1941 0.283395C40.2223 0.283395 40.2506 0.282054 40.2788 0.280712Z" fill="white"/>
<path d="M42.2758 0.283395C42.2476 0.283395 42.2194 0.282054 42.1912 0.280712C42.2194 0.280712 42.2476 0.282054 42.2758 0.283395Z" fill="white"/>
<path d="M135.359 27.4573V53.4964C135.359 54.3089 135.75 54.8557 136.531 55.137C137.328 55.4026 137.727 55.8323 137.727 56.426C137.727 57.0667 137.367 57.387 136.648 57.387H128.703C127.984 57.387 127.625 57.0667 127.625 56.426C127.625 55.8323 128.016 55.4026 128.797 55.137C129.578 54.8557 129.969 54.3089 129.969 53.4964V30.9964L117.43 58.0901H115.719L103.32 32.051V53.4964C103.32 54.3089 103.711 54.8557 104.492 55.137C105.273 55.4026 105.664 55.8323 105.664 56.426C105.664 57.0667 105.305 57.387 104.586 57.387H98.6328C97.9141 57.387 97.5547 57.0667 97.5547 56.426C97.5547 55.8323 97.9453 55.4026 98.7266 55.137C99.5078 54.8557 99.8984 54.3089 99.8984 53.4964V27.4573C99.8984 26.6604 99.5078 26.1214 98.7266 25.8401C97.9453 25.5589 97.5547 25.1135 97.5547 24.5042C97.5547 23.8635 97.9141 23.5432 98.6328 23.5432H105.266L117.688 48.9964L129.711 23.5432H136.648C137.367 23.5432 137.727 23.8635 137.727 24.5042C137.727 25.1135 137.328 25.5589 136.531 25.8401C135.75 26.1214 135.359 26.6604 135.359 27.4573ZM143.07 38.3089C142.852 37.8089 142.531 37.4182 142.109 37.137C141.75 36.9026 141.328 36.6917 140.844 36.5042C140.359 36.301 140.055 36.0276 139.93 35.6839C139.867 35.5432 139.836 35.4182 139.836 35.3089C139.836 34.8557 140.133 34.6292 140.727 34.6292H148.414C148.992 34.6292 149.383 34.8714 149.586 35.3557C149.648 35.4651 149.68 35.5823 149.68 35.7073C149.68 36.0667 149.453 36.3557 149 36.5745C148.781 36.6839 148.625 36.8714 148.531 37.137C148.5 37.2307 148.484 37.3401 148.484 37.4651C148.484 37.6057 148.523 37.7542 148.602 37.9104L154.18 51.551L159.008 39.9729C159.133 39.6917 159.195 39.4182 159.195 39.1526C159.195 38.6995 159.008 38.2542 158.633 37.8167L157.602 36.5745L160.039 34.676C160.227 34.4729 160.453 34.3714 160.719 34.3714C161.016 34.3714 161.289 34.4964 161.539 34.7464L162.852 36.0823C163.195 36.4417 163.367 36.8792 163.367 37.3948C163.367 37.6604 163.312 37.9651 163.203 38.3089C162.953 39.0589 162.578 39.9417 162.078 40.9573L150.5 66.7854C150.016 67.8167 149.586 68.6839 149.211 69.387C148.727 70.2307 148.07 70.6526 147.242 70.6526H147.148L145.227 70.5823C144.586 70.4729 144.266 70.1682 144.266 69.6682L144.102 66.551L145.883 66.5042C146.68 66.4729 147.25 66.1135 147.594 65.426L151.25 57.8323C151.297 57.8323 151.32 57.8167 151.32 57.7854C151.32 57.7229 151.266 57.6292 151.156 57.5042C151.062 57.4104 150.977 57.2464 150.898 57.012C150.82 56.7932 150.766 56.6448 150.734 56.5667L143.07 38.3089ZM176.492 55.1604C177.664 55.0823 178.789 54.7776 179.867 54.2464C180.945 53.6995 181.812 52.9026 182.469 51.8557C183.156 50.7464 183.5 49.4026 183.5 47.8245V47.5667C183.453 45.9417 182.844 44.7073 181.672 43.8635C181.141 43.4573 180.492 43.1448 179.727 42.926C178.102 42.4885 176.414 42.176 174.664 41.9885C172.93 41.7854 171.25 41.2932 169.625 40.512C168.125 39.8089 167.008 38.7854 166.273 37.4417C165.555 36.0823 165.195 34.6214 165.195 33.0589C165.195 30.012 166.266 27.512 168.406 25.5589C170.625 23.512 173.414 22.4885 176.773 22.4885H177.5C181.109 22.6448 184.266 23.5979 186.969 25.3479L186.383 30.5276C186.32 31.0901 185.977 31.3714 185.352 31.3714H185.234C184.766 31.3401 184.391 31.0198 184.109 30.4104C183.484 29.0667 182.57 27.9339 181.367 27.012C180.18 26.0901 178.914 25.5979 177.57 25.5354H177.219C175.875 25.5354 174.695 25.7698 173.68 26.2385C173.008 26.5823 172.477 26.9573 172.086 27.3635C171.711 27.7698 171.375 28.2698 171.078 28.8635C170.844 29.3479 170.664 29.9182 170.539 30.5745C170.43 31.0589 170.375 31.512 170.375 31.9339C170.375 32.4964 170.461 33.0198 170.633 33.5042C170.93 34.4573 171.438 35.1839 172.156 35.6839C172.688 36.0901 173.273 36.3714 173.914 36.5276C174.305 36.637 174.773 36.7385 175.32 36.8323C175.867 36.926 176.445 37.0198 177.055 37.1135C177.945 37.2542 178.891 37.4026 179.891 37.5589C180.906 37.7151 181.898 37.9339 182.867 38.2151C184.539 38.762 185.789 39.4807 186.617 40.3714C187.211 41.0589 187.703 41.8089 188.094 42.6214C188.531 43.6995 188.75 44.8792 188.75 46.1604C188.75 49.6292 187.336 52.5198 184.508 54.8323C183.039 56.0354 181.414 56.926 179.633 57.5042C178.195 57.9573 176.664 58.2151 175.039 58.2776C174.695 58.2932 174.352 58.301 174.008 58.301C171.773 58.301 169.531 57.9573 167.281 57.2698L164.984 50.8714C164.938 50.7464 164.914 50.6214 164.914 50.4964C164.914 50.262 164.992 50.0354 165.148 49.8167C165.383 49.4417 165.75 49.2542 166.25 49.2542C166.672 49.3635 167.016 49.6917 167.281 50.2385C168.234 52.3167 169.414 53.6917 170.82 54.3635C171.977 54.926 173.461 55.2073 175.273 55.2073C175.664 55.2073 176.07 55.1917 176.492 55.1604ZM194.047 37.6057C193.859 37.6057 193.172 37.637 191.984 37.6995H191.844C191.172 37.6995 190.82 37.387 190.789 36.762V36.7151C190.789 36.2932 191.039 35.9651 191.539 35.7307C191.836 35.5901 192.469 35.2542 193.438 34.7229C193.688 34.5979 193.945 34.4807 194.211 34.3714C194.258 34.3557 194.281 34.3401 194.281 34.3245C194.281 34.3089 194.203 34.301 194.047 34.301V30.762C194.047 29.8714 194.242 29.2464 194.633 28.887C195.023 28.512 195.82 28.0354 197.023 27.4573C197.539 27.2073 197.977 27.0823 198.336 27.0823C199.086 27.0823 199.461 27.4417 199.461 28.1604V34.2073L204.453 34.1135H204.477C205.102 34.1135 205.414 34.4729 205.414 35.1917C205.414 35.426 205.383 35.7151 205.32 36.0589C205.102 37.0589 204.555 37.5589 203.68 37.5589L199.461 37.5354V51.762C199.461 53.0432 199.898 53.9964 200.773 54.6214C201.664 55.2464 202.57 55.6214 203.492 55.7464V57.3635C200.711 57.3635 198.438 57.1214 196.672 56.637C194.922 56.1526 194.047 54.2932 194.047 51.0589V37.6057ZM219.312 34.0432C222.547 34.1682 225.266 35.3948 227.469 37.7229C229.672 40.051 230.797 42.8167 230.844 46.0198V46.1604C230.844 49.3948 229.695 52.137 227.398 54.387C225.039 56.6839 222.148 57.8792 218.727 57.9729H218.352C215.164 57.9729 212.422 56.801 210.125 54.4573C207.797 52.0979 206.633 49.3089 206.633 46.0901V46.0198C206.648 42.4885 207.984 39.512 210.641 37.0901C211 36.762 211.492 36.4885 212.117 36.2698C212.742 36.051 213.633 35.7307 214.789 35.3089C215.477 35.0589 216.234 34.7854 217.062 34.4885C217.922 34.1917 218.641 34.0432 219.219 34.0432H219.312ZM218.773 36.551H218.516C216.906 36.551 215.5 37.3557 214.297 38.9651C212.969 40.762 212.305 42.9885 212.305 45.6448C212.305 48.301 212.945 50.5823 214.227 52.4885C215.523 54.3792 217.039 55.3635 218.773 55.4417H219.078C220.672 55.4417 222.062 54.637 223.25 53.0276C224.578 51.2464 225.242 49.0276 225.242 46.3714C225.242 43.7151 224.594 41.4417 223.297 39.551C222 37.6448 220.492 36.6448 218.773 36.551ZM241.766 42.9729V53.4964C241.766 54.3089 242.148 54.8557 242.914 55.137C243.695 55.4026 244.086 55.8323 244.086 56.426C244.086 57.0667 243.734 57.387 243.031 57.387H235.086C234.367 57.387 234.008 57.0667 234.008 56.426C234.008 55.8323 234.398 55.4026 235.18 55.137C235.961 54.8557 236.352 54.3089 236.352 53.4964V38.4964C236.352 37.7151 235.961 37.1839 235.18 36.9026C234.398 36.6214 234.008 36.176 234.008 35.5667C234.008 34.926 234.359 34.6057 235.062 34.6057C236.031 34.5589 237 34.4026 237.969 34.137C238.953 33.8714 240.219 33.4807 241.766 32.9651V36.012L244.203 35.0979C245.406 34.6448 246.352 34.301 247.039 34.0667C247.32 33.9885 247.633 33.9495 247.977 33.9495C248.633 33.9495 249.57 34.1604 250.789 34.5823L250.203 41.2385H248.117C247.508 38.9573 246.492 37.8167 245.07 37.8167C244.914 37.8167 244.766 37.8245 244.625 37.8401C243.672 37.9495 242.969 38.4885 242.516 39.4573C242.062 40.4104 241.812 41.5823 241.766 42.9729ZM254.586 38.3089C254.367 37.8089 254.047 37.4182 253.625 37.137C253.266 36.9026 252.844 36.6917 252.359 36.5042C251.875 36.301 251.57 36.0276 251.445 35.6839C251.383 35.5432 251.352 35.4182 251.352 35.3089C251.352 34.8557 251.648 34.6292 252.242 34.6292H259.93C260.508 34.6292 260.898 34.8714 261.102 35.3557C261.164 35.4651 261.195 35.5823 261.195 35.7073C261.195 36.0667 260.969 36.3557 260.516 36.5745C260.297 36.6839 260.141 36.8714 260.047 37.137C260.016 37.2307 260 37.3401 260 37.4651C260 37.6057 260.039 37.7542 260.117 37.9104L265.695 51.551L270.523 39.9729C270.648 39.6917 270.711 39.4182 270.711 39.1526C270.711 38.6995 270.523 38.2542 270.148 37.8167L269.117 36.5745L271.555 34.676C271.742 34.4729 271.969 34.3714 272.234 34.3714C272.531 34.3714 272.805 34.4964 273.055 34.7464L274.367 36.0823C274.711 36.4417 274.883 36.8792 274.883 37.3948C274.883 37.6604 274.828 37.9651 274.719 38.3089C274.469 39.0589 274.094 39.9417 273.594 40.9573L262.016 66.7854C261.531 67.8167 261.102 68.6839 260.727 69.387C260.242 70.2307 259.586 70.6526 258.758 70.6526H258.664L256.742 70.5823C256.102 70.4729 255.781 70.1682 255.781 69.6682L255.617 66.551L257.398 66.5042C258.195 66.4729 258.766 66.1135 259.109 65.426L262.766 57.8323C262.812 57.8323 262.836 57.8167 262.836 57.7854C262.836 57.7229 262.781 57.6292 262.672 57.5042C262.578 57.4104 262.492 57.2464 262.414 57.012C262.336 56.7932 262.281 56.6448 262.25 56.5667L254.586 38.3089Z" fill="white"/>
</svg>
