<svg width="51" height="52" viewBox="0 0 51 52" fill="none" xmlns="http://www.w3.org/2000/svg">
<g id="gGCx4l.tif">
<g id="Group">
<path id="Vector" d="M19.1058 26.2464C19.0531 26.98 19.0349 27.7179 18.9381 28.4463C18.8239 29.3059 18.5775 30.1336 17.9903 30.8102C17.8848 30.9319 17.7318 31.0337 17.5804 31.0907C16.8074 31.3789 16.0645 31.278 15.3693 30.8499C14.623 30.3907 13.8828 29.9221 13.1478 29.444C12.3046 28.896 11.4096 28.4705 10.4039 28.3471C8.96325 28.1701 7.61858 28.4342 6.42004 29.2999C5.98335 29.6149 5.95741 30.0723 5.99373 30.528C6.02918 30.9768 6.34135 31.2443 6.75556 31.3815C7.36607 31.5843 7.9835 31.7664 8.59141 31.9753C8.76523 32.0349 8.95374 32.122 9.07394 32.2523C9.68704 32.9186 10.5077 33.2828 11.241 33.773C12.4655 34.5921 13.7557 35.3248 14.8522 36.3182C16.439 37.7551 17.8277 39.3656 19.0003 41.159C19.5642 42.0203 20.1669 42.8575 20.6987 43.7378C21.1726 44.5223 21.4778 45.3879 21.7087 46.276C21.9128 47.0605 22.142 47.839 22.3175 48.6295C22.4991 49.446 22.6305 50.2745 22.7845 51.097C22.8026 51.1928 22.826 51.2877 22.858 51.4344C22.1437 51.1962 21.4692 50.9753 20.7981 50.7474C18.4633 49.9534 16.1726 49.0533 13.9762 47.927C11.5255 46.6704 9.27716 45.1333 7.35569 43.1466C5.76284 41.4999 4.45708 39.6452 3.40382 37.617C2.86422 36.5788 2.33586 35.5293 1.89311 34.4479C1.33189 33.0774 1.44051 33.5253 0.96222 31.9753C0.773706 31.4463 0.506432 30.6603 0.354502 29.7487C0.253216 29.141 0.0880791 28.3583 0.0506428 27.647C0 26.6848 0.0506436 26.938 0 26.1784C0 25.6973 0.0203771 25.1807 0.0506432 24.9123C0.134523 24.1657 0.119521 23.9619 0.246638 23.2223C0.420452 22.2091 0.596859 21.1924 0.858877 20.1999C1.28087 18.6041 1.82826 17.0463 2.5114 15.5394C3.77998 12.7432 5.45239 10.2127 7.52605 7.94809C9.48383 5.81032 10.0123 5.12573 12.5089 3.64215C13.3549 3.19282 15.826 1.99625 16.6616 1.69239C17.7504 1.38853 18.5916 1.19512 19.7002 1.00871C20.6151 0.855084 21.6084 0.77186 22.532 0.676925C23.1788 0.61047 23.8308 0.597524 24.4802 0.564728C24.9385 0.541426 25.3968 0.522439 25.8552 0.501726C25.8733 0.501726 25.8915 0.500863 25.9096 0.5C26.3187 0.5 26.7277 0.5 27.1367 0.5C27.1549 0.5 27.173 0.500863 27.1912 0.501726C27.7342 0.521576 28.2782 0.526754 28.8204 0.566455C29.5251 0.618237 30.2282 0.694185 30.9312 0.768407C31.5227 0.830547 32.1159 0.884919 32.7031 0.976402C33.3629 1.0791 34.0201 1.20079 34.6712 1.34924C35.3613 1.50718 36.047 1.68841 36.7241 1.89296C39.5466 2.74478 42.1443 4.02468 44.3909 5.96222C46.4361 7.72456 47.9727 9.85715 48.968 12.3583C49.3667 13.3603 49.6849 14.4011 49.9495 15.4462C50.1709 16.3222 50.2824 17.2284 50.4035 18.126C50.5038 18.8674 50.5548 19.6156 50.6119 20.3622C50.6586 20.9689 50.6828 21.5765 50.7165 22.184C50.7382 22.5638 50.7589 22.9444 50.7805 23.3241C50.7805 23.8722 50.7814 24.4193 50.7823 24.9674C50.7624 25.518 50.7546 26.0695 50.7191 26.6184C50.6811 27.2061 50.6171 27.7921 50.5626 28.3781C50.5133 28.9089 50.4908 29.4431 50.407 29.9679C50.2401 31.019 50.0723 32.0728 49.8475 33.1128C49.3165 35.5699 48.5019 37.9312 47.3432 40.1691C45.1069 44.4852 41.8495 47.7984 37.5499 50.0786C36.5987 50.5835 35.6077 51.0141 34.5917 51.5C34.4914 50.9563 34.3997 50.4825 34.3184 50.0069C34.2311 49.496 34.1463 48.9851 34.0719 48.4716C34.008 48.0323 33.9483 47.5921 33.9085 47.1511C33.8463 46.4546 33.7866 45.7582 33.7546 45.06C33.7079 44.0424 33.9976 43.0862 34.3331 42.1394C34.6946 41.1227 35.0802 40.113 35.3803 39.0782C35.5481 38.5008 35.593 37.8811 35.6397 37.277C35.7029 36.4675 35.7132 35.6527 35.7504 34.8415C35.7816 34.1407 35.7937 33.4382 35.8585 32.7408C35.9433 31.8269 36.2113 30.9535 36.642 30.1448C37.0372 29.4034 37.473 28.6819 37.9244 27.9734C38.7234 26.7185 39.5415 25.4748 40.3647 24.2355C40.8775 23.4631 41.4352 22.72 41.9359 21.9398C42.4141 21.1933 42.6459 20.3621 42.5655 19.4698C42.5205 18.9657 42.3856 18.4798 42.1383 18.0302C42.0648 17.8964 41.961 17.8619 41.8079 17.8472C40.8662 17.7558 40.267 18.2934 39.7706 18.9709C39.3486 19.5466 39.001 20.1766 38.5868 20.7583C38.2677 21.2062 37.9356 21.6593 37.5361 22.033C36.795 22.7269 36.2018 23.533 35.6017 24.3399C35.3535 24.6739 35.0794 24.9924 34.7923 25.2927C34.4801 25.6198 34.0849 25.8114 33.6257 25.8313C33.1692 25.8511 33.0974 25.7838 33.1908 25.3445C33.3482 24.6049 33.5047 23.8618 33.7226 23.1386C33.9492 22.3869 34.2501 21.6576 34.5173 20.918C34.9125 19.8227 35.216 18.7051 35.4469 17.5607C35.6025 16.7943 35.9095 16.059 36.1396 15.3064C36.4223 14.3821 36.7561 13.4673 36.9481 12.5248C37.0683 11.9345 37.0251 11.2933 36.9507 10.6883C36.8979 10.255 36.5036 9.97711 36.1629 9.71993C35.6103 9.30307 35.0837 9.36262 34.6245 9.88045C34.1714 10.3922 33.8947 11.0067 33.6491 11.6316C33.0706 13.1065 32.4998 14.5849 31.9533 16.0711C31.5236 17.2396 31.1465 18.4272 30.7211 19.5984C30.383 20.5296 29.9151 21.3969 29.3055 22.1832C29.2432 22.2634 29.174 22.3394 29.1049 22.4145C29.0902 22.4309 29.0616 22.4352 29.0262 22.4507C29.0097 22.3981 28.9829 22.3523 28.9829 22.3066C28.9821 21.5618 28.9665 20.8187 29.1083 20.0782C29.2744 19.21 29.4023 18.334 29.5467 17.4615C29.6747 16.6873 29.814 15.914 29.9272 15.1381C30.0206 14.4977 30.0725 13.8513 30.1642 13.2101C30.2602 12.5404 30.3899 11.875 30.4876 11.2052C30.6009 10.4285 30.8612 9.68799 31.0358 8.92851C31.2953 7.79706 30.7972 6.69667 29.8408 6.08305C29.1792 5.65843 28.2401 5.83967 27.8017 6.68028C27.5648 7.13424 27.5129 7.63049 27.3996 8.11466C27.1903 9.01309 26.9603 9.90634 26.7467 10.8039C26.5297 11.7162 26.3264 12.6318 26.1094 13.5441C25.9382 14.2647 25.7445 14.9802 25.5793 15.7017C25.4833 16.1229 25.4081 16.5501 25.3536 16.9781C25.2377 17.8878 25.1686 18.8044 25.025 19.7097C24.9455 20.2111 24.782 20.7048 24.6056 21.1838C24.4162 21.699 23.9302 21.8172 23.5039 21.4513C23.3068 21.2822 23.1355 21.0405 23.0465 20.7971C22.7775 20.0601 22.6591 19.2877 22.5665 18.5075C22.4213 17.2793 22.2284 16.0564 22.0667 14.83C22.0148 14.4391 21.9924 14.0446 21.9656 13.6511C21.9093 12.8252 21.918 11.9897 21.7909 11.1759C21.6586 10.3292 21.4173 9.4964 21.1786 8.67132C21.1017 8.4055 20.8786 8.1837 20.7298 7.93687C20.5214 7.59165 20.2049 7.58389 19.8599 7.63998C19.1491 7.75736 18.721 8.21736 18.504 8.85256C18.3371 9.34191 18.21 9.86405 18.1814 10.3776C18.12 11.5151 18.1339 12.656 18.1131 13.7952C18.1088 14.0213 18.0872 14.2475 18.0742 14.4736C18.0742 14.5944 18.0759 14.7161 18.0768 14.8369C18.0768 15.0734 18.0777 15.3107 18.0785 15.5472C18.0768 15.6853 18.0759 15.8234 18.0742 15.9615C18.1183 16.4525 18.1615 16.9436 18.2074 17.4347C18.2437 17.8188 18.2783 18.2028 18.325 18.586C18.3812 19.0495 18.4478 19.5112 18.51 19.9738C18.5835 20.5201 18.657 21.0664 18.7314 21.6127C18.7945 22.0753 18.8628 22.5362 18.9217 22.9988C18.9658 23.3397 19.0064 23.6814 19.0349 24.0232C19.0652 24.3848 19.0799 24.7482 19.1015 25.1106C19.1015 25.4878 19.1007 25.8649 19.0998 26.2429L19.1058 26.2464Z" fill="#A9A987"/>
<path id="Vector_2" d="M50.7823 24.9678C50.7823 24.4198 50.7814 23.8726 50.7806 23.3246C50.7944 23.6655 50.8169 24.0064 50.8204 24.3473C50.8221 24.5536 50.7961 24.7607 50.7823 24.9678Z" fill="#A9A987"/>
<path id="Vector_3" d="M19.1071 26.2465C19.1071 25.8693 19.108 25.4922 19.1089 25.1141C19.1089 25.4913 19.108 25.8684 19.1071 26.2465Z" fill="#A9A987"/>
<path id="Vector_4" d="M18.0831 14.8392C18.0831 14.7183 18.0814 14.5967 18.0805 14.4758C18.0805 14.5967 18.0823 14.7183 18.0831 14.8392Z" fill="#A9A987"/>
<path id="Vector_5" d="M25.9116 0.501221C25.8934 0.501221 25.8753 0.502084 25.8571 0.502947C25.8753 0.502947 25.8934 0.502084 25.9116 0.501221Z" fill="#A9A987"/>
<path id="Vector_6" d="M27.196 0.502947C27.1779 0.502947 27.1597 0.502084 27.1416 0.501221C27.1597 0.501221 27.1779 0.502084 27.196 0.502947Z" fill="#A9A987"/>
</g>
</g>
</svg>
